<svg width="101" height="164" viewBox="0 0 101 164" fill="none" xmlns="http://www.w3.org/2000/svg">
<path d="M35.7302 100.126C37.2095 99.2099 33.3963 99.4291 33.0932 98.7729C31.5779 98.5735 30.0821 98.2418 28.6233 97.7817C25.9562 96.9657 19.6871 92.3544 19.1572 88.1745C18.6263 83.9946 19.6091 76.0364 22.6894 71.4593C24.6204 68.6356 27.0621 66.2037 29.8891 64.29C29.8891 64.29 24.7629 50.6027 24.6654 40.3978C24.5679 30.193 26.068 12.1149 32.6801 12.0559C39.2931 11.9966 37.6805 28.8941 36.1329 39.8752C35.1841 47.1679 34.7959 54.5246 34.9743 61.8787C37.8236 61.1028 40.7701 60.7439 43.7236 60.8127C46.3215 60.853 48.9055 61.2004 51.4238 61.8475C51.4238 61.8475 54.1136 46.3121 61.3999 36.8927C68.6853 27.4734 76.3122 17.7138 81.0311 20.7435C85.7491 23.7734 79.2613 33.6501 74.8655 38.75C70.4687 43.8503 62.936 51.5081 60.3611 55.6183C58.6713 58.3725 57.1629 61.2353 55.8462 64.1881C60.0861 66.5734 63.4934 70.2137 65.6029 74.6132C68.5677 81.536 68.6073 89.9561 66.7101 93.4506C64.812 96.9454 60.0827 99.3985 57.6129 99.4115C55.493 99.4244 46.6162 101.274 46.6162 101.274L35.7302 100.126Z" fill="white"/>
<path d="M52.6531 62.0071C52.6531 62.0071 58.4217 48.4108 63.45 40.8342C68.4784 33.2575 74.9207 27.5348 76.835 28.7947C78.7493 30.0546 72.6071 37.191 67.0317 44.1091C61.4562 51.0273 54.5152 63.2733 54.5152 63.2733L52.6531 62.0071Z" fill="#DD00A1"/>
<path d="M31.4217 63.5488L32.9708 62.4217C32.9708 62.4217 33.2824 48.6049 33.8172 40.2C34.3531 31.7949 35.1698 21.3509 32.3804 21.3494C29.5899 21.3481 27.3522 29.3632 27.9861 40.8358C28.5104 48.4878 29.6588 56.0846 31.4217 63.5488Z" fill="#DD00A1"/>
<path d="M26.0706 92.9419C27.7508 92.7372 28.9462 91.2019 28.7401 89.5132C28.534 87.8244 27.0055 86.6212 25.3262 86.8257C23.646 87.0304 22.4505 88.5655 22.6567 90.2543C22.8618 91.9434 24.3913 93.1464 26.0706 92.9419Z" fill="#F9D8D2"/>
<path d="M62.2403 94.3791C63.9196 94.1747 65.115 92.6395 64.9089 90.9507C64.7037 89.2617 63.1752 88.0584 61.495 88.2632C59.8147 88.4679 58.6193 90.003 58.8254 91.6918C59.0315 93.3807 60.56 94.5839 62.2403 94.3791Z" fill="#F9D8D2"/>
<path d="M48.8628 90.5488C48.8325 90.5245 48.7986 90.5062 48.7616 90.4955C48.7246 90.4848 48.6864 90.4815 48.6483 90.4861C48.6102 90.4908 48.5732 90.5032 48.54 90.5225C48.5069 90.5418 48.4776 90.5677 48.4548 90.5985C48.207 91.0143 47.8742 91.372 47.4782 91.6483C47.0813 91.9248 46.6316 92.1129 46.1572 92.2009C45.7091 92.1665 45.2729 92.0415 44.8734 91.8336C44.475 91.6255 44.1208 91.3392 43.8349 90.9908L43.9189 88.6344C44.7903 88.2082 46.224 86.8284 46.2381 86.3362C46.1507 85.7974 45.8669 85.3103 45.4439 84.968C45.02 84.626 44.486 84.4531 43.9442 84.4826C42.387 84.4165 41.2231 85.4008 41.1899 86.258C41.1566 87.1152 42.8462 88.2744 43.325 88.632L43.2342 90.936C42.9757 91.2462 42.6547 91.4969 42.2916 91.6718C41.9285 91.8467 41.5325 91.9413 41.1299 91.9496C39.8722 91.9001 39.0008 90.1507 38.9882 90.1309C38.9527 90.0603 38.8907 90.0066 38.8167 89.9816C38.7417 89.9568 38.6605 89.9626 38.5903 89.9981C38.52 90.0335 38.4663 90.0956 38.4418 90.1706C38.4174 90.2455 38.4228 90.3275 38.4583 90.3981C38.4684 90.4822 39.4981 92.4896 41.1074 92.5495C41.5614 92.5514 42.0098 92.4592 42.4261 92.2782C42.8424 92.0971 43.2164 91.8314 43.5256 91.4976C44.1637 92.2023 45.0374 92.6463 45.979 92.7451L46.1675 92.7222C46.7405 92.635 47.2869 92.4219 47.7684 92.0977C48.2499 91.7736 48.6542 91.3465 48.9521 90.8472C48.9658 90.7941 48.9653 90.738 48.9491 90.6854C48.9339 90.6325 48.9037 90.5854 48.8628 90.5488Z" fill="#10110E"/>
<path d="M29.8883 64.2904C29.8883 64.2904 25.93 53.0415 25.311 47.1767C24.692 41.3119 24.2523 31.6073 25.6662 25.1964C26.2527 22.235 27.0119 19.3115 27.9416 16.4407C27.9416 16.4407 25.3323 31.4225 25.8297 38.0273C26.327 44.632 29.8883 64.2904 29.8883 64.2904Z" fill="#E5E5E5"/>
<path d="M51.4211 61.8264C51.4211 61.8264 55.1982 45.1133 60.0637 38.7297C64.9293 32.3461 70.9057 24.5365 73.8592 22.5771L76.8087 20.6606C76.8087 20.6606 64.7687 32.4189 59.912 42.2783C55.0563 52.1374 51.4211 61.8264 51.4211 61.8264Z" fill="#E5E5E5"/>
<path d="M32.3059 80.1205C31.8346 80.1041 31.368 80.2288 30.9669 80.4783C30.5658 80.7278 30.247 81.0913 30.052 81.5227C29.856 81.9542 29.7921 82.4344 29.867 82.9031C29.9428 83.3715 30.1547 83.8071 30.4758 84.1552C30.7968 84.5033 31.2133 84.748 31.6726 84.8586C32.9519 84.7028 32.7538 84.9024 33.4873 84.5529C33.9537 84.3307 33.8828 84.321 34.161 83.9375C34.4382 83.5542 34.5962 83.0967 34.6161 82.6224C34.6286 82.3057 34.579 81.9893 34.4693 81.6919C34.3605 81.3941 34.1932 81.1213 33.9787 80.8887C33.7641 80.656 33.5058 80.4684 33.2189 80.3365C32.931 80.2049 32.6214 80.1313 32.3059 80.1205ZM32.9099 82.3825C32.8244 82.38 32.7403 82.3601 32.6624 82.3243C32.5835 82.2887 32.5139 82.2374 32.4555 82.174C32.3971 82.1106 32.3522 82.0359 32.3232 81.9548C32.2942 81.8735 32.2815 81.7874 32.2863 81.7012C32.2828 81.6108 32.298 81.5208 32.3313 81.4365C32.3647 81.3523 32.4146 81.276 32.4783 81.2122C32.542 81.1485 32.6177 81.0988 32.7021 81.0659C32.7855 81.0333 32.8756 81.0183 32.9657 81.022C33.0557 81.0258 33.1436 81.0484 33.2246 81.088C33.3056 81.1276 33.3776 81.1837 33.4354 81.2527C33.4942 81.3215 33.5375 81.402 33.5638 81.4885C33.5901 81.5751 33.5979 81.6661 33.5868 81.7561C33.5851 81.8422 33.5654 81.927 33.5295 82.0057C33.4946 82.084 33.4441 82.1544 33.3801 82.2131C33.317 82.2715 33.2432 82.3164 33.1629 82.3454C33.0817 82.3746 32.9961 82.3872 32.9099 82.3825Z" fill="#10110E"/>
<path d="M55.8964 81.0537C55.4246 81.0353 54.9574 81.1581 54.5549 81.4063C54.1524 81.6544 53.8324 82.017 53.6352 82.4482C53.4381 82.8793 53.3722 83.3597 53.4461 83.8288C53.5201 84.2979 53.7312 84.7344 54.0515 85.0836C54.3728 85.4325 54.7886 85.6786 55.2482 85.7903C55.7068 85.9021 56.189 85.8744 56.6328 85.7109C57.0757 85.5477 57.4613 85.2559 57.7396 84.8725C58.0178 84.4891 58.1767 84.0313 58.1956 83.557C58.2194 82.9193 57.9908 82.2979 57.5597 81.8289C57.1286 81.3598 56.5311 81.081 55.8964 81.0537ZM56.4904 83.3169C56.3185 83.309 56.1553 83.2332 56.0393 83.1053C55.9223 82.9778 55.8604 82.8088 55.8668 82.6356C55.8633 82.5452 55.8785 82.4552 55.9118 82.3709C55.9442 82.287 55.9941 82.2106 56.0578 82.1469C56.1215 82.0831 56.1982 82.0332 56.2816 82.0006C56.3659 81.9677 56.4551 81.9529 56.5452 81.9567C56.6352 81.9605 56.724 81.9828 56.8041 82.0226C56.8851 82.0623 56.9571 82.1184 57.0159 82.1871C57.0737 82.2562 57.1179 82.3362 57.1443 82.4229C57.1696 82.5097 57.1784 82.6005 57.1673 82.6904C57.1693 82.779 57.1525 82.8671 57.1196 82.9489C57.0866 83.0307 57.0361 83.105 56.9729 83.1667C56.9098 83.2284 56.8346 83.2764 56.7529 83.3075C56.6702 83.3388 56.5818 83.3529 56.4946 83.3483L56.4904 83.3169Z" fill="#10110E"/>
<path d="M71.6959 76.036L72.1046 65.375C72.9432 65.2207 73.7077 64.7935 74.28 64.1592C74.8533 63.5246 75.2015 62.7184 75.2729 61.8643C75.1538 60.8633 74.6831 59.9375 73.9469 59.2529C73.2097 58.5687 72.2541 58.1709 71.2517 58.1312C70.2492 58.0914 69.2667 58.412 68.4794 59.0358C67.693 59.6593 67.1538 60.5449 66.958 61.5336C66.9646 62.3887 67.2501 63.2188 67.771 63.8956C68.2929 64.572 69.0214 65.0575 69.8442 65.277L69.4539 75.6587L69.1511 75.6955C66.4689 64.5686 57.3688 57.3589 45.1749 56.8823C32.9811 56.4057 23.3565 62.7399 19.838 73.7372L18.7721 73.6965C17.6328 73.5944 16.5011 73.9491 15.6222 74.6836C14.7434 75.4181 14.1904 76.4724 14.0839 77.6162L13.7666 85.8135C13.79 86.9632 14.2634 88.0577 15.084 88.8599C15.9046 89.6622 17.0064 90.1076 18.1504 90.0997L19.5898 90.159C20.6855 93.3135 22.5248 96.1554 24.9484 98.443L23.9376 99.2915L22.8393 100.204C22.5778 100.41 22.4074 100.713 22.3661 101.046C22.3258 101.378 22.4168 101.714 22.6214 101.979C27.0183 107.768 34.4655 111.339 43.0051 111.686C51.5446 112.031 59.2397 109.11 64.0654 103.617C64.1776 103.495 64.2635 103.352 64.32 103.196C64.3759 103.041 64.4008 102.875 64.3939 102.71C64.3867 102.544 64.3473 102.382 64.2769 102.231C64.2067 102.081 64.1086 101.947 63.9864 101.835L62.0164 99.9417C64.6022 97.8465 66.65 95.1576 67.9885 92.1007L69.5768 92.1632C70.7171 92.2654 71.8499 91.9109 72.7308 91.1762C73.6107 90.4419 74.1657 89.3873 74.275 88.2422L74.5822 80.0462C74.5959 79.1547 74.3218 78.2824 73.802 77.5594C73.2812 76.8367 72.5427 76.3022 71.6959 76.036ZM44.7161 68.5307C55.9847 68.9813 64.8192 76.7992 64.5016 85.9455C64.1278 95.8559 53.6722 99.8919 43.5451 99.4941C33.4191 99.096 23.2902 94.2406 23.664 84.3303C24.0119 75.1696 33.4502 68.0902 44.7161 68.5307Z" fill="white"/>
<path d="M73.467 87.4445L68.8949 87.2656C68.9223 86.5371 69.0693 85.826 69.095 84.991C69.212 81.9388 69.0245 78.8819 68.5343 75.8665L70.4751 75.95C70.9054 75.9371 71.3342 76.0112 71.7355 76.168C72.1367 76.3248 72.5023 76.5612 72.8109 76.8628C73.1204 77.1641 73.3652 77.5252 73.5331 77.9237C73.701 78.3222 73.7868 78.7506 73.7867 79.1832L73.467 87.4445Z" fill="#CECECE"/>
<path d="M70.2196 90.7412L68.0349 90.6554C68.518 89.1432 68.8896 87.5973 69.1477 86.03L73.518 86.2014L73.4481 88.0656C73.415 88.4562 73.3056 88.8361 73.1243 89.1832C72.944 89.5301 72.695 89.8375 72.3953 90.0866C72.0946 90.3358 71.7469 90.5221 71.3733 90.6346C70.9997 90.747 70.6077 90.7832 70.2196 90.7412Z" fill="#CECECE"/>
<path d="M17.0306 73.5992L18.7678 73.6649C18.1703 76.1562 17.8123 78.6996 17.6992 81.2602C17.6612 81.8987 17.6723 82.5391 17.7311 83.176L13.8715 83.017L14.0857 76.0696C14.0968 75.7055 14.1852 75.3478 14.3429 75.0206C14.5016 74.6932 14.7282 74.403 15.0063 74.1697C15.2844 73.9364 15.6081 73.7651 15.9575 73.6667C16.306 73.5684 16.6725 73.5453 17.0306 73.5992Z" fill="#CECECE"/>
<path d="M44.6027 67.254C41.7256 67.1456 38.8503 67.496 36.084 68.2917L36.4751 57.8355C42.0597 56.3223 47.9722 56.5581 53.4245 58.5112L53.0225 69.0542C50.3401 67.9686 47.4914 67.3594 44.6027 67.254Z" fill="#F8B600"/>
<path d="M35.946 60.1074L35.6246 68.4437C27.9629 70.9449 22.4243 77.0266 22.1495 84.2695C21.795 93.6335 30.4078 100.327 43.49 100.866C56.5713 101.405 65.6585 95.4452 66.0155 86.017C66.2902 78.7741 61.2334 72.277 53.7796 69.1752L54.1009 60.839C62.821 64.405 68.0367 72.8238 67.6138 83.7213C67.1503 96.0207 57.4615 103.919 43.391 103.363C29.3203 102.805 20.2574 94.1621 20.7268 81.8192C21.1431 70.9546 26.9704 62.9712 35.946 60.1074Z" fill="#CECECE"/>
<path d="M13.8647 83.05L17.6065 83.2021C17.6882 85.5276 17.8667 87.8628 18.1461 90.0683L16.2802 89.9863C14.7677 89.936 13.675 88.1067 13.7623 85.782L13.8647 83.05Z" fill="#CECECE"/>
<path d="M74.4176 61.8445C74.4798 60.2029 73.0557 58.8138 71.2371 58.7415C69.4174 58.6694 67.8927 59.9415 67.8294 61.5832C67.7672 63.2248 69.1913 64.6139 71.0109 64.6859C72.8296 64.7583 74.3553 63.4859 74.4176 61.8445Z" fill="#CECECE"/>
<path d="M23.0672 99.984C23.0672 99.984 16.9151 103.645 13.7602 107.271C10.6063 110.898 7.41081 116.108 6.63691 120.553C5.86319 124.998 7.50658 126.035 8.56617 126.802C9.62454 127.568 13.4704 128.572 17.5334 124.131C21.5965 119.69 20.7704 120.143 20.7704 120.143C20.7704 120.143 20.8368 130.436 22.5054 137.166C24.1737 143.894 26.6962 153.718 32.9802 153.486C39.2642 153.253 38.1738 146.572 38.4929 145.008C38.6933 144.334 39.126 143.754 39.7132 143.372C40.2991 142.99 41.0028 142.83 41.6971 142.922C42.9766 142.979 45.3044 143.186 45.7703 146.841C46.2368 150.495 43.8213 153.476 49.8465 154.172C55.8718 154.867 58.673 146.953 61.6803 138.109C63.5195 132.447 64.7351 126.598 65.3049 120.668C65.3049 120.668 76.5591 112.994 80.2375 108.184C83.916 103.374 86.8034 100.078 85.0284 96.1354C83.2535 92.1927 79.0297 92.4406 75.472 93.9726C71.9143 95.5045 64.6115 99.5615 64.6115 99.5615L62.6888 100.766L63.1978 103.114C63.1978 103.114 53.7249 111.734 44.3424 111C34.9598 110.267 25.9384 104.135 25.9384 104.135L23.0672 99.984Z" fill="white"/>
<path d="M16.102 104.98C15.0766 105.844 14.1283 106.795 13.2657 107.822L10.7442 111.158C10.7442 111.158 12.9369 114.09 14.2516 113.823C15.5663 113.556 16.5179 112.054 17.4589 110.979C18.3989 109.905 19.0397 109.507 19.2589 108.339C19.4771 107.171 16.102 104.98 16.102 104.98Z" fill="#DD00A1"/>
<path d="M65.0335 99.286L71.5248 95.8823C71.5248 95.8823 74.4419 97.0946 74.2975 97.8267C74.1531 98.5588 71.4821 100.143 70.8015 100.482C70.0544 101.001 69.22 101.38 68.3399 101.603C67.6784 101.576 65.0335 99.286 65.0335 99.286Z" fill="#DD00A1"/>
<path d="M51.6666 122.702L51.591 124.696L64.5153 128.026L64.8216 126.101L51.6666 122.702Z" fill="black"/>
<path d="M33.759 121.994L33.6764 124.019L20.9949 126.332L20.8822 124.362L33.759 121.994Z" fill="black"/>
<path d="M51.592 124.696L49.6921 128.35L40.1495 128.82C40.1495 128.82 45.3256 131.079 48.8034 130.89C52.2808 130.701 51.0568 129.015 52.8113 127.917C54.5657 126.818 64.4944 128.029 64.4944 128.029" fill="#CECECE"/>
<path d="M36.3842 117.078L49.9166 117.562C50.3841 117.749 50.8106 118.028 51.1718 118.379C51.4282 118.764 51.6191 119.187 51.7387 119.633L51.4283 127.882C51.294 128.394 51.0429 128.867 50.6944 129.262C50.3121 129.551 49.9018 129.801 49.4698 130.009L35.7795 129.523C35.2526 129.434 34.7664 129.184 34.3868 128.807C34.0437 128.384 33.7763 127.904 33.5988 127.388L33.8368 118.721C33.8368 118.721 33.8675 118.013 34.8618 117.466C35.3421 117.245 35.8575 117.114 36.3842 117.078Z" fill="#F8B600"/>
<path d="M48.2911 121.094L37.6408 120.671C37.2694 120.657 36.956 120.948 36.9422 121.321L36.9282 121.671C36.9143 122.044 37.2049 122.36 37.5763 122.374L48.2266 122.797C48.598 122.811 48.9114 122.52 48.9252 122.147L48.9382 121.798C48.9528 121.423 48.6625 121.108 48.2911 121.094Z" fill="white"/>
<path d="M42.7025 127.313C43.32 127.238 43.759 126.674 43.6838 126.053C43.6083 125.432 43.0457 124.989 42.4281 125.065C41.8106 125.14 41.3706 125.704 41.4471 126.326C41.5223 126.946 42.084 127.389 42.7025 127.313Z" fill="white"/>
<path d="M47.2645 127.494C47.882 127.419 48.3211 126.855 48.2456 126.233C48.1704 125.612 47.6077 125.17 46.9902 125.245C46.3726 125.321 45.9326 125.885 46.0091 126.506C46.0843 127.127 46.646 127.57 47.2645 127.494Z" fill="white"/>
<path d="M38.0428 127.124C38.6603 127.049 39.1003 126.485 39.0239 125.863C38.9487 125.242 38.3869 124.8 37.7684 124.875C37.1509 124.951 36.7119 125.515 36.7874 126.136C36.8626 126.757 37.4253 127.199 38.0428 127.124Z" fill="white"/>
<path d="M42.8912 109.534C34.4275 109.2 27.0199 105.869 22.4893 100.289L24.9356 98.2524C29.5462 101.786 35.7377 103.932 43.0928 104.22C50.4468 104.508 57.1728 103.027 62.0397 99.8746L64.205 101.797C59.2371 106.999 51.3131 109.874 42.8912 109.534Z" fill="#CECECE"/>
<path d="M43.0931 117.903C43.0931 117.903 36.9125 117.59 36.5886 117.629C36.2647 117.668 35.209 117.712 34.8995 118.133C34.6573 118.384 34.5002 118.706 34.45 119.052C34.4147 119.376 34.2528 124.227 34.2528 124.227C34.2528 124.227 34.6916 119.555 35.5259 118.74C36.5399 117.838 43.0931 117.903 43.0931 117.903Z" fill="#D69A03"/>
<path d="M70.1093 63.8903L69.6133 77.0574L71.6757 63.9447L70.1093 63.8903Z" fill="#CECECE"/>
<path d="M33.0312 124.386L20.994 126.333C21.2362 130.594 21.8926 134.821 22.9567 138.955C24.5539 144.402 26.2119 148.785 27.2616 150.087C28.312 151.387 27.5161 149.213 29.9104 147.535C30.7904 146.867 31.7116 146.255 32.669 145.706C32.669 145.706 26.3567 136.471 26.3847 132.437C26.4133 128.402 33.0312 124.386 33.0312 124.386Z" fill="#CECECE"/>
<path d="M20.7712 120.142L24.169 116.082C24.169 116.082 23.4501 121.149 24.4817 121.866C25.5135 122.583 33.1178 122.136 33.1178 122.136L20.8857 124.395L20.7712 120.142Z" fill="#CECECE"/>
<path d="M35.861 57.9314C31.3026 59.009 27.2518 61.6255 24.3846 65.3444C19.7552 71.4969 19.8235 73.7067 19.8235 73.7067C19.281 77.3385 19.0932 81.0153 19.2618 84.6851C19.6373 89.6837 20.6904 95.4529 25.6223 98.8407C32.5805 103.234 40.8248 105.098 48.9788 104.121C57.8903 102.822 58.8118 101.857 58.8118 101.857C58.8118 101.857 37.6155 104.546 29.9547 99.0486C22.2938 93.5512 22.1272 89.2204 22.1614 84.3637C22.1956 79.5072 23.3119 73.2604 27.5685 71.0141C30.1599 69.6429 32.8568 68.4797 35.6311 67.5362L35.861 57.9314Z" fill="#CECECE"/>
<path d="M65.3046 120.667L65.4422 117.004C65.4422 117.004 74.298 111.328 78.2583 108.478C82.2176 105.628 82.7143 104.917 82.7143 104.917C79.9201 108.548 76.7429 111.864 73.2368 114.805C68.6184 118.344 65.3046 120.667 65.3046 120.667Z" fill="#CECECE"/>
<path d="M43.0564 143.108C43.4075 143.101 43.7524 143.198 44.05 143.385C44.3484 143.571 44.5856 143.842 44.7333 144.162C45.2602 145.417 45.6237 146.735 45.8159 148.082C46.9502 147.598 48.1824 147.39 49.4119 147.474C50.6266 147.483 51.8213 147.788 52.8942 148.361C52.8942 148.361 50.0383 144.955 48.3318 143.307C46.6243 141.66 43.0564 143.108 43.0564 143.108Z" fill="#CECECE"/>
<path d="M12.3584 112.913L10.7341 111.159C10.7341 111.159 7.71447 116.241 7.17095 118.397C6.86122 119.625 6.61968 120.868 6.44745 122.122C6.44745 122.122 9.51263 113.238 12.3584 112.913Z" fill="#CECECE"/>
<path d="M23.067 99.9839L16.1021 104.981L17.5384 106.065L24.1983 101.606L23.067 99.9839Z" fill="#CECECE"/>
<path d="M16.1019 104.981L14.1207 106.833L10.7341 111.159L12.2044 112.868L17.5393 106.064L16.1019 104.981Z" fill="#B20088"/>
<path d="M56.8859 102.497C56.8859 102.497 48.3358 104.936 42.801 104.352C37.9207 103.687 33.1371 102.433 28.5548 100.616C27.6643 100.225 26.8164 99.7424 26.0247 99.1755L24.6424 99.0667L24.3288 99.5422C27.0887 101.589 30.2251 103.063 33.5565 103.878C39.4878 105.459 44.7568 106.214 49.6204 105.12C52.1822 104.701 54.645 103.812 56.8859 102.497Z" fill="#B20088"/>
</svg>
