<svg width="267" height="121" viewBox="0 0 267 121" fill="none" xmlns="http://www.w3.org/2000/svg">
<path d="M220.5 65.7729C221.881 65.7729 223 64.6537 223 63.2729C223 61.8922 221.881 60.7729 220.5 60.7729C219.119 60.7729 218 61.8922 218 63.2729C218 64.6537 219.119 65.7729 220.5 65.7729Z" fill="white"/>
<path d="M253.5 48.7729C256.538 48.7729 259 46.0866 259 42.7729C259 39.4592 256.538 36.7729 253.5 36.7729C250.462 36.7729 248 39.4592 248 42.7729C248 46.0866 250.462 48.7729 253.5 48.7729Z" fill="white"/>
<path d="M265 120.773C263.895 120.773 263 119.878 263 118.773C263 117.668 263.895 116.773 265 116.773C266.105 116.773 267 117.668 267 118.773C267 119.878 266.105 120.773 265 120.773Z" fill="white"/>
<path d="M189.5 32.7729C193.09 32.7729 196 29.8628 196 26.2729C196 22.6831 193.09 19.7729 189.5 19.7729C185.91 19.7729 183 22.6831 183 26.2729C183 29.8628 185.91 32.7729 189.5 32.7729Z" fill="#DD00A1"/>
<g opacity="0.4">
<path opacity="0.4" d="M57.7523 2.90186C57.7412 2.92302 57.7314 2.94419 57.7217 2.96536" stroke="#FEFEFC" stroke-width="2" stroke-linecap="round" stroke-linejoin="round"/>
<path opacity="0.4" d="M25.8262 1.05815L25.7886 1" stroke="#FEFEFC" stroke-width="2" stroke-linecap="round" stroke-linejoin="round"/>
</g>
<path d="M40.7713 85.8819C63.2887 85.8819 81.5427 67.5311 81.5427 44.8942C81.5427 22.2574 63.2887 3.90656 40.7713 3.90656C18.2539 3.90656 0 22.2574 0 44.8942C0 67.5311 18.2539 85.8819 40.7713 85.8819Z" fill="#A3B7C5"/>
<path d="M65.4955 53.5256C72.6071 53.5256 78.3723 47.7298 78.3723 40.5804C78.3723 33.431 72.6071 27.6353 65.4955 27.6353C58.3838 27.6353 52.6187 33.431 52.6187 40.5804C52.6187 47.7298 58.3838 53.5256 65.4955 53.5256Z" fill="#697C8C"/>
<path d="M73.5217 65.3719C75.8951 65.3719 77.8192 63.4376 77.8192 61.0516C77.8192 58.6655 75.8951 56.7312 73.5217 56.7312C71.1482 56.7312 69.2241 58.6655 69.2241 61.0516C69.2241 63.4376 71.1482 65.3719 73.5217 65.3719Z" fill="#697C8C"/>
<path d="M27.7725 59.6805C30.2511 59.6805 32.2604 57.6606 32.2604 55.1688C32.2604 52.6771 30.2511 50.6572 27.7725 50.6572C25.294 50.6572 23.2847 52.6771 23.2847 55.1688C23.2847 57.6606 25.294 59.6805 27.7725 59.6805Z" fill="#697C8C"/>
<path d="M20.3744 12.6881C20.1289 14.5614 20.4416 16.4767 21.2728 18.1917C22.1039 19.9067 23.4163 21.3445 25.0439 22.3232C26.6715 23.302 28.5413 23.7777 30.4168 23.6902C32.2922 23.6027 34.0892 22.956 35.5803 21.8318C37.0715 20.7076 38.1899 19.1564 38.7942 17.3744C39.3984 15.5924 39.4614 13.6597 38.975 11.8205C38.4887 9.98139 37.4749 8.31849 36.0619 7.04209C34.6489 5.76569 32.9002 4.93311 31.0368 4.64968L30.8641 4.62341C27.7994 5.52169 24.8592 6.78789 22.106 8.39509C21.1838 9.65349 20.5889 11.1283 20.3744 12.6881Z" fill="#697C8C"/>
<path d="M36.3494 78.7497C34.995 79.1277 33.7785 79.927 32.874 81.033C31.9695 82.1391 31.4233 83.4952 31.3137 84.9073C35.64 85.6697 40.085 85.7023 44.4717 85.0036C44.4827 84.4623 44.4261 83.9241 44.3032 83.4018C43.8915 81.6938 42.8229 80.2448 41.3318 79.3726C39.8407 78.5005 38.0489 78.2764 36.3494 78.7497Z" fill="#697C8C"/>
<path opacity="0.5" d="M175.817 52.977C177.964 53.5553 173.153 67.2881 175.311 67.8694C177.469 68.4507 187.909 69.721 187.525 71.1594C187.142 72.5978 174.544 70.7463 173.882 71.6849C173.22 72.6234 169.377 82.8172 167.752 83.1442C166.127 83.4713 170.246 73.7887 168.736 72.2288C167.226 70.6689 155.739 67.514 156.568 65.8558C157.398 64.1976 168.261 68.2405 169.933 64.8305L175.817 52.977Z" fill="#98C9EA"/>
<path d="M196 101.773C194.343 101.773 193 100.43 193 98.773C193 97.116 194.343 95.773 196 95.773C197.657 95.773 199 97.116 199 98.773C199 100.43 197.657 101.773 196 101.773Z" fill="#F88600"/>
</svg>
