<svg width="172" height="181" viewBox="0 0 172 181" fill="none" xmlns="http://www.w3.org/2000/svg">
<path d="M110.232 18.0069C111.572 17.671 112.385 16.3132 112.049 14.9739C111.713 13.6347 110.356 12.8212 109.016 13.1571C107.676 13.493 106.863 14.8509 107.199 16.1901C107.535 17.5294 108.893 18.3428 110.232 18.0069Z" fill="white"/>
<path d="M142.281 65.6421C143.888 65.2391 144.81 63.3925 144.34 61.5175C143.869 59.6427 142.186 58.4493 140.578 58.8523C138.971 59.2554 138.05 61.1021 138.52 62.9769C138.99 64.8519 140.674 66.0451 142.281 65.6421Z" fill="#DD00A1"/>
<path d="M156.894 150.64C160.377 149.767 162.491 146.237 161.618 142.755C160.745 139.272 157.214 137.158 153.732 138.031C150.25 138.904 148.135 142.434 149.009 145.917C149.882 149.399 153.412 151.514 156.894 150.64Z" fill="#DD00A1"/>
<path d="M56.095 113.688C57.5889 112.796 53.7727 112.953 53.4801 112.292C51.9683 112.069 50.478 111.713 49.0268 111.229C46.3732 110.371 40.1792 105.659 39.7166 101.471C39.2531 97.2832 40.3638 89.3418 43.5175 84.8149C45.4936 82.0227 47.9743 79.6303 50.8317 77.7624C50.8317 77.7624 45.9266 63.9943 45.9933 53.7892C46.0601 43.5842 47.8512 25.5326 54.4633 25.58C61.0764 25.6273 59.192 42.4965 57.4677 53.4513C56.4016 60.7278 55.895 68.0773 55.9551 75.4333C58.8165 74.7034 61.7684 74.3919 64.7203 74.5083C67.3173 74.5904 69.8953 74.9794 72.4029 75.667C72.4029 75.667 75.3425 60.1769 82.7795 50.876C90.2156 41.5753 97.9986 31.9397 102.668 35.0449C107.337 38.1505 100.691 47.9214 96.2134 52.9499C91.7351 57.9787 84.0801 65.5143 81.4393 69.5825C79.7054 72.3091 78.1511 75.1473 76.7871 78.0785C80.988 80.5317 84.3362 84.2264 86.3747 88.6593C89.2276 95.6289 89.1317 104.049 87.1784 107.512C85.2242 110.976 80.4561 113.353 77.9864 113.326C75.8666 113.305 66.9612 115.011 66.9612 115.011L56.095 113.688Z" fill="white"/>
<path d="M73.6293 75.8464C73.6293 75.8464 79.616 62.3447 84.7657 54.85C89.9154 47.3553 96.4491 41.7371 98.3428 43.0276C100.237 44.3181 93.9803 51.3547 88.2942 58.1822C82.6081 65.0097 75.4708 77.1424 75.4708 77.1424L73.6293 75.8464Z" fill="#DD00A1"/>
<path d="M52.3759 77.046L53.9429 75.944C53.9429 75.944 54.4769 62.1341 55.1471 53.7388C55.8182 45.3435 56.8029 34.9139 54.0139 34.8675C51.2238 34.8212 48.8573 42.7994 49.3064 54.2806C49.7075 61.9401 50.7334 69.5544 52.3759 77.046Z" fill="#DD00A1"/>
<path d="M46.5523 106.349C48.2356 106.171 49.4556 104.656 49.2767 102.964C49.0978 101.272 47.5889 100.044 45.9065 100.222C44.2232 100.399 43.0032 101.915 43.1821 103.607C43.36 105.299 44.8699 106.527 46.5523 106.349Z" fill="#F9D8D2"/>
<path d="M82.6942 108.369C84.3766 108.191 85.5965 106.675 85.4176 104.984C85.2397 103.291 83.7308 102.064 82.0474 102.241C80.3641 102.419 79.1441 103.935 79.323 105.627C79.5019 107.319 81.0109 108.546 82.6942 108.369Z" fill="#F9D8D2"/>
<path d="M69.3801 104.323C69.3501 104.299 69.3165 104.28 69.2797 104.268C69.2428 104.257 69.2047 104.253 69.1665 104.257C69.1284 104.261 69.0912 104.273 69.0577 104.292C69.0243 104.311 68.9946 104.336 68.9713 104.366C68.7168 104.778 68.3783 105.131 67.9779 105.4C67.5766 105.67 67.1239 105.851 66.6482 105.932C66.2006 105.89 65.7665 105.758 65.3705 105.544C64.9755 105.329 64.6259 105.037 64.3457 104.684L64.4676 102.33C65.3457 101.917 66.8015 100.561 66.8235 100.069C66.7447 99.5288 66.4689 99.0373 66.0515 98.6882C65.633 98.3394 65.102 98.1579 64.5597 98.1787C63.0038 98.0876 61.8242 99.053 61.7772 99.9095C61.7301 100.766 63.4008 101.952 63.8738 102.318L63.746 104.62C63.4825 104.926 63.1575 105.171 62.7916 105.34C62.4257 105.509 62.0282 105.598 61.6256 105.599C60.3689 105.53 59.5257 103.767 59.5134 103.746C59.4791 103.675 59.418 103.621 59.3444 103.594C59.2698 103.568 59.1885 103.573 59.1177 103.607C59.0469 103.642 58.9921 103.703 58.9665 103.777C58.9409 103.852 58.945 103.934 58.9793 104.005C58.988 104.089 59.9852 106.113 61.5934 106.199C62.0473 106.208 62.4971 106.123 62.9163 105.949C63.3355 105.774 63.7137 105.515 64.0282 105.186C64.6549 105.901 65.5213 106.359 66.4613 106.473L66.6501 106.453C67.2244 106.375 67.7742 106.171 68.2609 105.854C68.7475 105.538 69.1586 105.118 69.4645 104.623C69.4791 104.57 69.4795 104.514 69.4642 104.461C69.4498 104.408 69.4203 104.361 69.3801 104.323Z" fill="#10110E"/>
<path d="M50.831 77.7629C50.831 77.7629 47.0543 66.4517 46.5298 60.5777C46.0052 54.7036 45.7218 44.9933 47.2388 38.606C47.8729 35.6544 48.6791 32.7435 49.6549 29.888C49.6549 29.888 46.8047 44.8259 47.1957 51.4378C47.5866 58.0497 50.831 77.7629 50.831 77.7629Z" fill="#E5E5E5"/>
<path d="M72.4006 75.6458C72.4006 75.6458 76.4463 58.9958 81.414 52.6913C86.3817 46.3869 92.4831 38.6745 95.4678 36.7629L98.4477 34.8942C98.4477 34.8942 86.22 46.4571 81.2052 56.237C76.1913 66.0166 72.4006 75.6458 72.4006 75.6458Z" fill="#E5E5E5"/>
<path d="M52.993 93.6298C52.522 93.6058 52.0535 93.723 51.6484 93.966C51.2434 94.209 50.9188 94.5674 50.7168 94.9955C50.5139 95.4239 50.4423 95.903 50.5096 96.3728C50.5779 96.8423 50.7828 97.2812 51.0982 97.6345C51.4136 97.9877 51.8261 98.2391 52.2835 98.3571C53.5651 98.2219 53.3639 98.4183 54.1029 98.0807C54.5728 97.866 54.5021 97.8551 54.7865 97.4762C55.0698 97.0974 55.2351 96.6425 55.2627 96.1686C55.2802 95.8521 55.2358 95.535 55.1309 95.2358C55.0269 94.9363 54.864 94.6609 54.6532 94.4248C54.4425 94.1887 54.1872 93.9969 53.9024 93.8605C53.6167 93.7242 53.3083 93.6457 52.993 93.6298ZM53.5606 95.9013C53.475 95.8973 53.3913 95.8762 53.314 95.8391C53.2357 95.8022 53.1669 95.7498 53.1095 95.6855C53.0521 95.6211 53.0085 95.5458 52.9808 95.4641C52.9531 95.3824 52.9418 95.2961 52.948 95.21C52.9459 95.1196 52.9626 95.0298 52.9973 94.9461C53.032 94.8624 53.0832 94.7869 53.1479 94.7242C53.2125 94.6615 53.289 94.613 53.3739 94.5815C53.4579 94.5503 53.5483 94.5367 53.6382 94.5418C53.7282 94.5471 53.8157 94.571 53.896 94.6119C53.9764 94.6529 54.0475 94.7102 54.1042 94.7801C54.1619 94.8498 54.2038 94.9309 54.2287 95.0179C54.2536 95.1048 54.26 95.196 54.2475 95.2858C54.2443 95.3718 54.2232 95.4564 54.1861 95.5345C54.1499 95.6122 54.0983 95.6818 54.0334 95.7394C53.9694 95.7968 53.8948 95.8405 53.8141 95.8682C53.7325 95.8961 53.6466 95.9073 53.5606 95.9013Z" fill="#10110E"/>
<path d="M76.5655 94.9427C76.094 94.9167 75.6249 95.032 75.2185 95.2737C74.812 95.5153 74.4862 95.8727 74.2821 96.3006C74.0781 96.7284 74.0045 97.2077 74.0708 97.678C74.1372 98.1482 74.3413 98.5881 74.656 98.9424C74.9716 99.2964 75.3834 99.5492 75.8411 99.6682C76.2978 99.7874 76.7805 99.7675 77.2268 99.6111C77.6722 99.4551 78.0625 99.1695 78.3469 98.7907C78.6313 98.4118 78.7976 97.9566 78.8241 97.4827C78.8581 96.8455 78.6395 96.2205 78.2161 95.7446C77.7926 95.2686 77.1996 94.9802 76.5655 94.9427ZM77.1229 97.2152C76.9512 97.2045 76.7892 97.126 76.6753 96.9964C76.5603 96.8669 76.5012 96.697 76.5104 96.5239C76.5083 96.4335 76.525 96.3437 76.5597 96.26C76.5934 96.1766 76.6446 96.101 76.7093 96.0383C76.7739 95.9756 76.8514 95.9269 76.9353 95.8957C77.0202 95.8642 77.1097 95.8508 77.1996 95.856C77.2896 95.8612 77.378 95.885 77.4574 95.9261C77.5378 95.9671 77.6089 96.0243 77.6665 96.094C77.7233 96.164 77.7662 96.2447 77.7911 96.3318C77.8151 96.419 77.8224 96.5099 77.8099 96.5997C77.8104 96.6883 77.7922 96.7761 77.758 96.8573C77.7237 96.9386 77.672 97.0121 77.6078 97.0727C77.5437 97.1335 77.4678 97.1802 77.3856 97.21C77.3023 97.24 77.2137 97.2526 77.1267 97.2466L77.1229 97.2152Z" fill="#10110E"/>
<path d="M92.4439 90.18L93.0241 79.527C93.8651 79.3863 94.6364 78.9714 95.2188 78.3464C95.8023 77.7211 96.1634 76.9206 96.2485 76.0678C96.1456 75.065 95.6899 74.1317 94.9647 73.4354C94.2386 72.7394 93.2896 72.3262 92.288 72.2704C91.2863 72.2144 90.2987 72.5192 89.5014 73.1303C88.7051 73.741 88.1517 74.6178 87.94 75.6032C87.9328 76.4584 88.205 77.2929 88.7149 77.978C89.2258 78.6628 89.9464 79.1599 90.7656 79.3927L90.2082 89.7667L89.9049 89.7986C87.4021 78.63 78.4193 71.2747 66.2347 70.6018C54.0501 69.9289 44.3248 76.1074 40.6296 87.0466L39.5645 86.9887C38.4271 86.8683 37.2898 87.2047 36.3992 87.9249C35.5087 88.6453 34.9388 89.6905 34.8138 90.8325L34.3646 99.0235C34.3695 100.173 34.8252 101.275 35.6328 102.091C36.4404 102.906 37.5349 103.369 38.6788 103.38L40.117 103.462C41.1619 106.634 42.9551 109.505 45.3416 111.832L44.3172 112.664L43.2044 113.558C42.9397 113.76 42.7644 114.06 42.7177 114.392C42.6721 114.724 42.7576 115.061 42.958 115.33C47.2612 121.188 54.6498 124.879 63.1828 125.363C71.7156 125.846 79.4567 123.049 84.3703 117.635C84.4844 117.514 84.5726 117.372 84.6316 117.217C84.69 117.064 84.7175 116.898 84.7133 116.733C84.7088 116.567 84.672 116.404 84.604 116.252C84.5362 116.101 84.4403 115.965 84.32 115.851L82.3806 113.927C84.9999 111.873 87.0907 109.218 88.4782 106.183L90.0653 106.271C91.2038 106.392 92.3422 106.055 93.2348 105.335C94.1264 104.615 94.6983 103.569 94.8261 102.426L95.2652 94.2362C95.2933 93.345 95.0332 92.4684 94.5251 91.7372C94.016 91.0061 93.2862 90.4598 92.4439 90.18ZM65.5884 82.2413C76.8482 82.8733 85.5557 90.8324 85.0909 99.9724C84.5576 109.876 74.0383 113.743 63.919 113.182C53.8007 112.621 43.7513 107.603 44.2846 97.6999C44.7799 88.546 54.331 81.6194 65.5884 82.2413Z" fill="white"/>
<path d="M94.031 101.616L89.4624 101.363C89.5015 100.635 89.6598 99.9264 89.699 99.0919C89.8652 96.042 89.7268 92.9825 89.2853 89.9596L91.2245 90.0744C91.6549 90.0684 92.0825 90.1494 92.4812 90.3126C92.8799 90.4759 93.2416 90.7181 93.5453 91.0246C93.8499 91.3309 94.0889 91.6958 94.2503 92.097C94.4117 92.4982 94.4906 92.9279 94.4836 93.3604L94.031 101.616Z" fill="#CECECE"/>
<path d="M90.7312 104.86L88.5482 104.739C89.0555 103.234 89.4519 101.695 89.7353 100.132L94.1022 100.373L94.0023 102.236C93.963 102.626 93.8475 103.004 93.6606 103.349C93.4747 103.692 93.2208 103.996 92.9171 104.24C92.6124 104.484 92.2618 104.665 91.8864 104.772C91.511 104.878 91.1185 104.908 90.7312 104.86Z" fill="#CECECE"/>
<path d="M37.8249 86.8634L39.5608 86.957C38.9232 89.4384 38.5244 91.9757 38.3701 94.5342C38.3217 95.172 38.3225 95.8125 38.3711 96.4502L34.5145 96.2291L34.8405 89.2861C34.8575 88.9222 34.9517 88.5659 35.1146 88.2413C35.2786 87.9165 35.5098 87.6301 35.7916 87.4013C36.0734 87.1724 36.3999 87.0064 36.7508 86.9136C37.1008 86.821 37.4677 86.8037 37.8249 86.8634Z" fill="#CECECE"/>
<path d="M65.4954 80.9629C62.6205 80.8083 59.7399 81.1123 56.9611 81.8634L57.5205 71.4148C63.1288 69.9917 69.0367 70.3227 74.4568 72.3634L73.8852 82.8985C71.2206 81.7698 68.3821 81.1149 65.4954 80.9629Z" fill="#F8B600"/>
<path d="M56.955 73.6779L56.4995 82.008C48.7985 84.3854 43.1626 90.3772 42.7713 97.6148C42.2661 106.972 50.77 113.803 63.8419 114.552C76.9128 115.302 86.0947 109.49 86.6035 100.068C86.9948 92.8307 82.0432 86.2531 74.6403 83.0317L75.0958 74.7017C83.7574 78.4076 88.8368 86.9094 88.2385 97.7986C87.577 110.089 77.7624 117.831 63.7026 117.047C49.6427 116.264 40.7202 107.476 41.3883 95.1419C41.9794 84.2854 47.9345 76.3969 56.955 73.6779Z" fill="#CECECE"/>
<path d="M34.5071 96.262L38.246 96.4743C38.2902 98.8009 38.4311 101.139 38.6749 103.348L36.8106 103.236C35.2991 103.162 34.236 101.315 34.3607 98.992L34.5071 96.262Z" fill="#CECECE"/>
<path d="M95.3936 76.0342C95.4823 74.3939 94.0807 72.982 92.2635 72.8805C90.4452 72.7791 88.9002 74.0264 88.8105 75.6669C88.7218 77.3072 90.1234 78.7192 91.9416 78.8204C93.7589 78.9221 95.3049 77.6745 95.3936 76.0342Z" fill="#CECECE"/>
<path d="M43.4359 113.342C43.4359 113.342 37.2256 116.903 34.0128 120.479C30.8009 124.054 27.5219 129.211 26.6765 133.643C25.8313 138.076 27.4578 139.139 28.5049 139.923C29.5508 140.706 33.38 141.772 37.514 137.397C41.6481 133.022 40.8148 133.461 40.8148 133.461C40.8148 133.461 40.7155 143.754 42.2755 150.51C43.8352 157.264 46.1993 167.127 52.4862 166.996C58.7731 166.865 57.7904 160.167 58.1346 158.608C58.3459 157.938 58.7879 157.365 59.3811 156.993C59.9731 156.62 60.6793 156.471 61.372 156.574C62.6505 156.652 64.9746 156.896 65.3815 160.558C65.7892 164.219 63.326 167.162 69.3392 167.954C75.3525 168.746 78.2808 160.878 81.4301 152.083C83.3603 146.452 84.6699 140.623 85.335 134.703C85.335 134.703 96.7114 127.211 100.467 122.461C104.222 117.711 107.162 114.462 105.451 110.491C103.74 106.521 99.5126 106.701 95.9307 108.175C92.3487 109.649 84.9815 113.588 84.9815 113.588L83.0397 114.762L83.5109 117.118C83.5109 117.118 73.9004 125.584 64.5309 124.699C55.1613 123.815 46.2398 117.538 46.2398 117.538L43.4359 113.342Z" fill="white"/>
<path d="M36.3911 118.226C35.352 119.073 34.3885 120.008 33.5094 121.021L30.9346 124.316C30.9346 124.316 33.0797 127.283 34.3985 127.037C35.7174 126.792 36.6931 125.305 37.6512 124.246C38.6084 123.187 39.2555 122.799 39.4935 121.635C39.7305 120.471 36.3911 118.226 36.3911 118.226Z" fill="#DD00A1"/>
<path d="M85.4079 113.32L91.9531 110.021C91.9531 110.021 94.8503 111.28 94.6941 112.01C94.5379 112.739 91.8418 114.28 91.1559 114.608C90.4005 115.115 89.5601 115.48 88.6765 115.69C88.0156 115.652 85.4079 113.32 85.4079 113.32Z" fill="#DD00A1"/>
<path d="M71.6658 136.518L71.5581 138.51L84.4272 142.048L84.7643 140.128L71.6658 136.518Z" fill="black"/>
<path d="M53.7719 135.521L53.6567 137.545L40.9397 139.654L40.8587 137.682L53.7719 135.521Z" fill="black"/>
<path d="M71.559 138.51L69.6004 142.133L60.0516 142.449C60.0516 142.449 65.1906 144.791 68.6709 144.659C72.151 144.525 70.9543 142.82 72.7262 141.75C74.4981 140.68 84.406 142.05 84.406 142.05" fill="#CECECE"/>
<path d="M56.4759 130.648L69.9988 131.35C70.4631 131.545 70.8851 131.83 71.2407 132.187C71.4908 132.576 71.6749 133.002 71.7873 133.45L71.344 141.693C71.2015 142.202 70.9428 142.671 70.588 143.061C70.2012 143.344 69.7868 143.587 69.3516 143.788L55.6709 143.081C55.1455 142.984 54.6634 142.727 54.2899 142.343C53.9536 141.915 53.694 141.431 53.5249 140.912L53.9023 132.25C53.9023 132.25 53.9445 131.543 54.9475 131.012C55.4312 130.799 55.9486 130.675 56.4759 130.648Z" fill="#F8B600"/>
<path d="M68.3167 134.855L57.6745 134.261C57.3034 134.241 56.9854 134.527 56.9656 134.9L56.9459 135.249C56.9261 135.622 57.2115 135.942 57.5826 135.963L68.2248 136.557C68.5959 136.577 68.9139 136.291 68.9337 135.918L68.9524 135.569C68.973 135.195 68.6878 134.876 68.3167 134.855Z" fill="white"/>
<path d="M62.6285 140.984C63.2472 140.919 63.6952 140.362 63.63 139.74C63.5646 139.117 63.0091 138.666 62.3904 138.731C61.7718 138.797 61.3228 139.354 61.3892 139.976C61.4544 140.598 62.0089 141.05 62.6285 140.984Z" fill="white"/>
<path d="M67.1871 141.238C67.8058 141.172 68.2539 140.616 68.1884 139.993C68.1232 139.371 67.5677 138.92 66.9491 138.985C66.3304 139.051 65.8814 139.608 65.9478 140.23C66.013 140.852 66.5675 141.304 67.1871 141.238Z" fill="white"/>
<path d="M57.9725 140.72C58.5912 140.654 59.0402 140.097 58.9738 139.475C58.9086 138.853 58.354 138.401 57.7344 138.467C57.1157 138.532 56.6677 139.089 56.7332 139.712C56.7984 140.334 57.3539 140.785 57.9725 140.72Z" fill="white"/>
<path d="M63.1037 123.21C54.6465 122.74 47.2934 119.29 42.8532 113.637L45.332 111.641C49.8851 115.248 56.0413 117.494 63.3908 117.9C70.7393 118.306 77.4882 116.934 82.4052 113.86L84.5393 115.817C79.4883 120.938 71.5191 123.685 63.1037 123.21Z" fill="#CECECE"/>
<path d="M63.1708 131.581C63.1708 131.581 56.996 131.168 56.6715 131.202C56.3471 131.236 55.2908 131.263 54.9746 131.679C54.7284 131.927 54.5661 132.246 54.5103 132.591C54.4698 132.914 54.2298 137.762 54.2298 137.762C54.2298 137.762 54.7438 133.098 55.5911 132.296C56.6195 131.41 63.1708 131.581 63.1708 131.581Z" fill="#D69A03"/>
<path d="M91.053 78.0104L90.345 91.1678L92.6183 78.09L91.053 78.0104Z" fill="#CECECE"/>
<path d="M53.0058 137.901L40.9387 139.654C41.1123 143.919 41.7006 148.156 42.698 152.306C44.2073 157.778 45.7945 162.187 46.8231 163.506C47.8524 164.823 47.0916 162.636 49.5127 160.997C50.4033 160.343 51.3342 159.747 52.3003 159.213C52.3003 159.213 46.1375 149.877 46.2304 145.845C46.3241 141.811 53.0058 137.901 53.0058 137.901Z" fill="#CECECE"/>
<path d="M40.8157 133.461L44.2784 129.455C44.2784 129.455 43.478 134.511 44.4979 135.244C45.518 135.978 53.1286 135.653 53.1286 135.653L40.8617 137.714L40.8157 133.461Z" fill="#CECECE"/>
<path d="M56.9051 71.5008C52.3299 72.5048 48.2375 75.0559 45.3108 78.7281C40.5829 84.8052 40.6156 87.0158 40.6156 87.0158C40.0147 90.6385 39.7678 94.3118 39.8772 97.9837C40.1722 102.988 41.1323 108.773 46.0089 112.24C52.8955 116.745 61.1088 118.741 69.2775 117.896C78.2087 116.741 79.1456 115.79 79.1456 115.79C79.1456 115.79 57.9088 118.138 50.3375 112.518C42.7661 106.898 42.6693 102.565 42.7816 97.7091C42.894 92.8538 44.1107 86.6258 48.403 84.4483C51.0161 83.1189 53.7313 81.9994 56.5205 81.1007L56.9051 71.5008Z" fill="#CECECE"/>
<path d="M85.3348 134.703L85.5313 131.042C85.5313 131.042 94.4773 125.51 98.483 122.724C102.488 119.938 102.996 119.234 102.996 119.234C100.143 122.821 96.9133 126.084 93.3603 128.969C88.6855 132.433 85.3348 134.703 85.3348 134.703Z" fill="#CECECE"/>
<path d="M62.7283 156.782C63.0795 156.781 63.4227 156.883 63.7173 157.076C64.0126 157.266 64.2454 157.541 64.388 157.863C64.8946 159.127 65.2368 160.45 65.4073 161.8C66.5493 161.335 67.7846 161.146 69.0127 161.25C70.2271 161.278 71.4167 161.603 72.4802 162.193C72.4802 162.193 69.6795 158.741 67.9998 157.067C66.319 155.392 62.7283 156.782 62.7283 156.782Z" fill="#CECECE"/>
<path d="M32.5205 126.097L30.9247 124.317C30.9247 124.317 27.8236 129.35 27.2454 131.497C26.916 132.719 26.6545 133.958 26.4621 135.21C26.4621 135.21 29.6699 126.376 32.5205 126.097Z" fill="#CECECE"/>
<path d="M43.4356 113.342L36.3911 118.226L37.8098 119.333L44.5407 114.982L43.4356 113.342Z" fill="#CECECE"/>
<path d="M36.391 118.226L34.3803 120.046L30.9244 124.317L32.367 126.049L37.8108 119.332L36.391 118.226Z" fill="#B20088"/>
<path d="M77.2096 116.399C77.2096 116.399 68.6213 118.7 63.0966 118.027C58.2277 117.284 53.4649 115.953 48.9124 114.063C48.0283 113.657 47.1883 113.161 46.4059 112.581L45.0255 112.45L44.7043 112.921C47.4308 115.012 50.5431 116.536 53.8609 117.405C59.766 119.081 65.0221 119.921 69.9027 118.905C72.471 118.528 74.9478 117.678 77.2096 116.399Z" fill="#B20088"/>
<path opacity="0.5" d="M152.956 93.5432C153.985 93.5612 153.371 100.273 154.407 100.29C155.441 100.309 160.275 99.7034 160.265 100.393C160.254 101.082 154.387 101.67 154.195 102.166C154.003 102.662 153.425 107.675 152.732 108.004C152.038 108.335 152.798 103.521 151.943 102.99C151.09 102.459 145.573 102.336 145.76 101.498C145.946 100.66 151.281 101.252 151.648 99.5315L152.956 93.5432Z" fill="#98C9EA"/>
<path d="M25.8449 39.1682C28.7916 38.4292 30.5807 35.442 29.8419 32.4956C29.1031 29.5493 26.1161 27.7596 23.1693 28.4986C20.2225 29.2375 18.4334 32.2248 19.1723 35.1712C19.9111 38.1175 22.8981 39.9071 25.8449 39.1682Z" fill="#F88600"/>
</svg>
